<?xml version="1.0" standalone="no"?>
<!DOCTYPE svg PUBLIC "-//W3C//DTD SVG 20010904//EN"
 "http://www.w3.org/TR/2001/REC-SVG-20010904/DTD/svg10.dtd">
<svg version="1.0" xmlns="http://www.w3.org/2000/svg"
 width="760.000000pt" height="760.000000pt" viewBox="0 0 760.000000 760.000000"
 preserveAspectRatio="xMidYMid meet">
<metadata>
Created by potrace 1.11, written by Peter Selinger 2001-2013
</metadata>
<g transform="translate(0.000000,760.000000) scale(0.100000,-0.100000)"
fill="#000000" stroke="none">
<path d="M2263 7593 l-1833 -3 1 -1088 c1 -598 5 -1672 9 -2387 8 -1439 4
-1354 76 -1645 271 -1095 1263 -2029 2504 -2358 413 -110 881 -134 1275 -66
598 104 1228 404 1742 829 145 120 378 355 486 490 330 412 522 819 608 1285
20 107 22 165 29 840 4 399 9 1486 10 2415 l2 1690 -1538 0 c-847 0 -2364 -1
-3371 -2z m2261 -1199 c-39 -83 -69 -192 -79 -281 l-7 -58 104 -100 c56 -56
180 -166 273 -246 l170 -145 -3 -90 -4 -90 74 -69 c164 -153 399 -328 670
-499 151 -95 172 -105 220 -108 l53 -3 -3 -219 -3 -220 -42 -46 c-23 -25 -72
-78 -109 -118 l-66 -72 -331 129 -331 129 -315 -65 -316 -64 -46 17 c-60 23
-204 114 -270 171 -69 58 -135 152 -163 230 -31 86 -26 219 12 311 22 52 23
61 8 47 -10 -9 -31 -42 -48 -73 -139 -262 -54 -563 228 -807 35 -30 78 -64 96
-77 19 -13 38 -36 43 -53 25 -76 321 -1072 321 -1077 0 -14 -791 -659 -800
-653 -22 14 -1436 1197 -1444 1209 -5 7 11 77 44 187 359 1200 914 2058 1702
2632 105 76 374 247 389 247 4 0 -8 -34 -27 -76z m-685 -172 l93 -87 -203
-170 c-509 -424 -792 -758 -1108 -1310 -110 -191 -303 -572 -416 -818 -45 -98
-85 -179 -89 -179 -16 -1 -356 295 -356 309 0 26 101 265 177 421 87 177 67
166 248 131 59 -11 112 -18 118 -16 6 2 -35 49 -91 104 -56 56 -102 108 -102
116 0 43 348 587 375 587 6 0 71 -20 145 -45 73 -25 135 -43 137 -41 2 2 -30
57 -71 122 -42 66 -76 124 -76 130 0 33 445 445 488 452 9 1 73 -20 141 -48
69 -27 125 -49 127 -47 1 1 -15 55 -34 121 l-36 118 24 20 c45 36 191 118 299
168 58 27 108 49 111 49 3 0 47 -39 99 -87z m-1081 -3721 c579 -495 1058 -901
1063 -901 6 0 463 374 1016 831 553 456 1006 829 1008 827 1 -2 32 -100 68
-218 61 -200 64 -216 49 -231 -10 -9 -471 -393 -1027 -854 -555 -461 -1033
-858 -1061 -882 l-51 -43 -1159 991 c-637 545 -1168 999 -1178 1010 -20 18
-19 20 29 196 27 98 55 199 63 226 l14 48 56 -49 c31 -27 531 -455 1110 -951z"/>
<path d="M4545 5369 c20 -34 227 -299 233 -299 6 0 99 124 124 166 6 8 -42 30
-160 72 -92 33 -176 64 -186 68 -15 6 -17 4 -11 -7z"/>
<path d="M5790 4506 c52 -53 98 -96 103 -96 4 0 7 37 5 82 l-3 83 -45 6 c-25
3 -70 9 -100 13 l-55 7 95 -95z"/>
</g>
</svg>
