<?xml version="1.0" encoding="UTF-8" standalone="no"?>
<!-- Created with Inkscape (http://www.inkscape.org/) -->

<svg
   xmlns:dc="http://purl.org/dc/elements/1.1/"
   xmlns:cc="http://creativecommons.org/ns#"
   xmlns:rdf="http://www.w3.org/1999/02/22-rdf-syntax-ns#"
   xmlns:svg="http://www.w3.org/2000/svg"
   xmlns="http://www.w3.org/2000/svg"
   xmlns:sodipodi="http://sodipodi.sourceforge.net/DTD/sodipodi-0.dtd"
   xmlns:inkscape="http://www.inkscape.org/namespaces/inkscape"
   width="512"
   height="512"
   viewBox="0 0 512.00001 512.00001"
   id="svg4545"
   version="1.1"
   inkscape:version="0.91 r13725"
   sodipodi:docname="Alabanda2.svg">
  <defs
     id="defs4547" />
  <sodipodi:namedview
     id="base"
     pagecolor="#ffffff"
     bordercolor="#666666"
     borderopacity="1.0"
     inkscape:pageopacity="0.0"
     inkscape:pageshadow="2"
     inkscape:zoom="1.4"
     inkscape:cx="244.03967"
     inkscape:cy="300.68132"
     inkscape:document-units="px"
     inkscape:current-layer="layer1"
     showgrid="false"
     units="px"
     inkscape:window-width="1536"
     inkscape:window-height="801"
     inkscape:window-x="-8"
     inkscape:window-y="-8"
     inkscape:window-maximized="1" />
  <metadata
     id="metadata4550">
    <rdf:RDF>
      <cc:Work
         rdf:about="">
        <dc:format>image/svg+xml</dc:format>
        <dc:type
           rdf:resource="http://purl.org/dc/dcmitype/StillImage" />
        <dc:title></dc:title>
      </cc:Work>
    </rdf:RDF>
  </metadata>
  <g
     inkscape:label="Layer 1"
     inkscape:groupmode="layer"
     id="layer1"
     transform="translate(0,-540.36216)">
    <g
       id="g5167"
       transform="matrix(0.98186384,0,0,0.98186384,12.164712,13.033031)"
       inkscape:export-xdpi="90"
       inkscape:export-ydpi="90">
      <g
         id="g4154"
         transform="matrix(4.9173631,0,0,-4.9173631,443.07908,608.03916)">
        <path
           d="M 0,0 C -6.546,1.465 -26.843,14.222 -39.648,13.436 -52.453,14.222 -72.665,1.465 -79.206,0 c -4.566,-1.022 -8.556,-0.091 -8.556,-0.091 4.949,-9.85 5.449,-54.2 5.449,-54.2 1.324,-18.82 42.661,-36.359 42.661,-36.359 0,0 41.434,17.539 42.764,36.359 0,0 0.495,44.35 5.445,54.2 0,0 -3.994,-0.931 -8.557,0.091"
           style="fill:#000000;fill-opacity:1;fill-rule:nonzero;stroke:none"
           id="path4156"
           inkscape:connector-curvature="0" />
      </g>
      <g
         id="g4158"
         transform="matrix(4.9173631,0,0,-4.9173631,253.51816,554.0947)">
        <path
           d="M 0,0 C -0.372,0 -0.737,-0.011 -1.098,-0.033 -1.458,-0.011 -1.824,0 -2.195,0 c -12.128,0 -30.282,-11.472 -36.281,-12.828 -1.996,-0.448 -3.876,-0.569 -5.319,-0.569 -1.676,0 -2.764,0.162 -2.764,0.162 4.678,-9.374 5.145,-51.27 5.145,-51.27 1.254,-17.918 38.348,-33.746 40.316,-34.57 0,0 39.147,16.652 40.398,34.57 0,0 0.477,41.896 5.152,51.27 0,0 -1.09,-0.162 -2.766,-0.162 -1.444,0 -3.325,0.12 -5.321,0.569 C 30.364,-11.472 12.129,-0.001 0,0 M -0.002,0 0,-0.512 c 7.933,-0.001 18.741,-5.085 26.632,-8.797 4.216,-1.983 7.546,-3.549 9.62,-4.018 1.717,-0.386 3.545,-0.582 5.434,-0.582 0.79,0 1.451,0.035 1.936,0.073 C 39.292,-24.54 38.807,-62.831 38.79,-64.47 37.62,-81.223 1.904,-97.204 -1.101,-98.518 c -3.335,1.418 -38.596,16.81 -39.801,34.018 -0.019,1.668 -0.495,39.959 -4.827,50.664 0.484,-0.038 1.145,-0.073 1.934,-0.073 1.887,0 3.715,0.196 5.432,0.582 2.074,0.469 5.398,2.037 9.605,4.023 7.864,3.71 18.633,8.792 26.563,8.792 0.363,0 0.722,-0.011 1.066,-0.032 l 0.031,-0.002 0.032,0.002 c 0.344,0.021 0.702,0.032 1.064,0.032 l 0,0.512"
           style="fill:#e2e2e4;fill-opacity:1;fill-rule:nonzero;stroke:none"
           id="path4160"
           inkscape:connector-curvature="0" />
      </g>
      <g
         id="g4162"
         transform="matrix(4.9173631,0,0,-4.9173631,254.50706,662.66567)">
        <path
           d="m 0,0 -2.376,2.157 c -2.288,-0.955 -3.47,-1.542 -5.392,-2.895 0.281,-1.033 0.583,-2.066 0.922,-3.099 l -3.365,1.372 c -2.211,-1.745 -4.289,-3.624 -6.092,-5.781 l 2.024,-3.211 -3.676,1.247 c -1.786,-2.417 -3.286,-4.834 -4.602,-7.251 -0.198,-0.41 1.91,-1.949 2.55,-2.936 -0.93,0.024 -3.547,0.851 -3.743,0.444 -1.737,-3.011 -3.209,-7.15 -3.194,-7.153 l 4.51,-3.867 C -13.503,-10.854 -8.473,-7.048 0,0"
           style="fill:#ffffff;fill-opacity:1;fill-rule:nonzero;stroke:none"
           id="path4164"
           inkscape:connector-curvature="0" />
      </g>
      <g
         id="g4166"
         transform="matrix(4.9173631,0,0,-4.9173631,250.4566,904.47354)">
        <path
           d="M 0,0 9.825,8.193 5.724,21.996 C -1.492,26.979 0.096,32.537 2.298,34.701 1.311,33.059 -0.739,28.209 7.471,24.536 l 7.88,1.63 8.181,-3.224 2.735,3.028 0.037,5.396 c -0.532,0.136 -0.993,0.009 -1.351,0.087 -4.051,2.459 -8.553,5.543 -11.273,8.456 l 0.145,2.143 c -2.311,1.99 -4.72,3.91 -6.76,6.096 0.063,1.761 0.606,3.649 1.551,5.311 C -5.483,45.604 -13.324,32.328 -18.056,15.213 L 0,0 Z"
           style="fill:#ffffff;fill-opacity:1;fill-rule:nonzero;stroke:none"
           id="path4168"
           inkscape:connector-curvature="0" />
      </g>
      <g
         id="g4170"
         transform="matrix(4.9173631,0,0,-4.9173631,361.4769,756.60206)">
        <path
           d="m 0,0 2.47,-2.511 0,2.178 L 0,0 Z"
           style="fill:#231f21;fill-opacity:1;fill-rule:nonzero;stroke:none"
           id="path4172"
           inkscape:connector-curvature="0" />
      </g>
      <g
         id="g4174"
         transform="matrix(4.9173631,0,0,-4.9173631,313.86848,717.04726)">
        <path
           d="m 0,0 -1.665,-2.311 -3.022,4 L 0,0 Z"
           style="fill:#000000;fill-opacity:1;fill-rule:nonzero;stroke:none"
           id="path4176"
           inkscape:connector-curvature="0" />
      </g>
      <g
         id="g4178"
         transform="matrix(4.9173631,0,0,-4.9173631,370.55289,838.53614)">
        <path
           d="M 0,0 -24.997,-20.817 -52.548,2.963 -54.103,-2.693 -24.981,-27.8 1.654,-5.491 0,0 Z"
           style="fill:#ffffff;fill-opacity:1;fill-rule:nonzero;stroke:none"
           id="path4180"
           inkscape:connector-curvature="0" />
      </g>
    </g>
  </g>
</svg>
